<svg xmlns="http://www.w3.org/2000/svg" height="800" width="1200" viewBox="-51.1389 -44.86275 443.2038 269.1765"><path d="M.436 166.343h8.957v2.412H3.874v2.604h5.21v2.45h-5.21v2.94H9.6v2.486H.436zm316.59 0h9.822v2.576h-3.192v10.316h-3.438v-10.316h-3.192zm-29.186 0h4.292l3.736 7.73c.126.26.276.622.446 1.084.17.464.356 1.03.564 1.7a22.98 22.98 0 01-.242-1.75 15.135 15.135 0 01-.078-1.462v-7.302h3.104v12.892h-4.274l-3.88-8.012c-.184-.368-.35-.768-.502-1.202a17.75 17.75 0 01-.416-1.412c.122.768.212 1.474.268 2.118.058.644.086 1.214.086 1.704v6.804h-3.104zm-24.982 0h8.958v2.412h-5.52v2.604h5.21v2.45h-5.21v2.94h5.726v2.486h-9.164zm-31.11 0h4.994l2.242 7.748c.09.31.158.654.214 1.038.056.384.096.798.122 1.238.042-.476.096-.916.156-1.32a9.68 9.68 0 01.216-1.03l2.246-7.674h4.914v12.892h-3.074v-8.656c0-.412.012-.836.036-1.28.024-.442.056-.912.102-1.414-.078.386-.164.758-.25 1.112-.086.352-.18.688-.278 1.004l-2.762 9.234h-2.936l-2.702-9.084a16.378 16.378 0 01-.268-1.046c-.086-.384-.168-.79-.242-1.22.042.61.074 1.162.1 1.648.026.486.038.854.038 1.102v8.6h-2.868zm-27.896 0h4.292l3.736 7.73c.126.26.276.622.446 1.084.17.464.356 1.03.564 1.7a22.98 22.98 0 01-.242-1.75 15.102 15.102 0 01-.078-1.462v-7.302h3.104v12.892H211.4l-3.88-8.012c-.18-.37-.352-.768-.502-1.202a16.95 16.95 0 01-.416-1.412c.122.768.21 1.476.266 2.118.058.644.088 1.216.088 1.704v6.804h-3.104zm-20.16 0h3.438v12.892h-3.438zm-21.67 2.876l-1.669 4.836h3.283zm-2.006-2.876h4.147l4.88 12.892h-3.673l-.916-2.732h-4.965l-.96 2.732h-3.403zm-28.193 0h9.823v2.576h-3.193v10.316h-3.437v-10.316h-3.193zm-21.72 2.266v3.304h1.208c.744 0 1.301-.132 1.673-.402.371-.27.557-.674.557-1.214 0-.578-.207-1.006-.622-1.278-.412-.274-1.069-.41-1.964-.41zm-3.366-2.266h5.126c1.706 0 2.973.276 3.796.83.827.554 1.24 1.396 1.24 2.526 0 .836-.217 1.522-.654 2.06-.437.54-1.065.898-1.886 1.082.675.246 1.22.95 1.632 2.11v.01l1.542 4.274h-3.583l-1.133-3.53c-.183-.566-.431-.96-.744-1.18-.315-.218-.805-.326-1.47-.326h-.5v5.036h-3.366zm-25.585 0h8.956v2.412h-5.519v2.604h5.21v2.45h-5.21v2.94h5.727v2.486h-9.164zm-25.876 0H65.1v2.576h-3.193v10.316H58.47v-10.316h-3.193zm-29.254 0h4.292l3.735 7.73c.127.26.276.622.446 1.084.17.464.357 1.03.564 1.7a23.465 23.465 0 01-.241-1.75 14.874 14.874 0 01-.078-1.462v-7.302h3.103v12.892H33.57l-3.88-8.012c-.183-.368-.35-.768-.502-1.202a17.115 17.115 0 01-.415-1.412c.121.768.21 1.474.266 2.118.06.644.087 1.214.087 1.704v6.804h-3.103z" stroke="#000" stroke-width=".432"/><path d="M86.747 126.957s.7 3.078 2.424 1.918c1.726-1.158 2.425-2.896 4.15-2.896 1.725 0 8.917-1.352 10.642 0 1.725 1.352 1.898.192 2.76.192.863 0 3.397.45 3.397.45 2.206-.23 1.756-3.736.162-4.762-2.3-1.802-5.398-2.96-7.699-4.764l-.69-5.214 1.898-2.704v-8.69l-1.035-2.317-.346-6.566-.862-1.159v-2.51c.575-.837 1.74-1.673 2.316-2.51.172-1.61-.6-2.746-.427-4.355-.402-2.06-.451-4.593-.854-6.653v-7.531c1.67-.498 2.073-1.237 2.193-1.986.153-.963-.319-2.097-.813-4.387-.23-12.037-.342-24.548-.572-36.586.918-1.439 2.018-2.183 2.042-3.249.018-.83-.873-1.521-1.987-2.457v-2.51s1.898-3.863 3.45-3.863c1.553 0 2.588-1.158 2.588-2.317 1.417-2.815-1.552-3.09-1.552-3.09-3.287-.068-7.01.1-10.215.032-2.828-.06-5.15-.358-7.9-.418l-3.624.193c-2.969.901-2.345 2.513-1.208 3.413 1.38.87 2.558 1.864 4.14 1.898 1.932.04 3.47.673 4.141 2.606l.518 23.174c.058 5.697.233 11.395.29 17.09.058 5.697-.002 11.394.055 17.091l.345 20.084s-.345 2.51-.863 3.09c-.517.58-.345 5.6-.345 5.6 1.911 1.665 1.505 1.432.173 3.67l-.345 14.869-1.38 2.704s-4.967 2.91-4.967 5.42zM3.193 150.963c-2.558-.526-3.038-1.764-2.13-2.494.546-.438 2.004-.422 2.659-.728.96-.452 1.939-1.044 2.516-1.758.987-1.222.388-4.05 1.566-6.354 1.131-9.72 1.47-22.598.34-26.93-.68-6.677.017-28.854.017-31.665.752-1.35 1.034-1.46 1.04-3.826.002-.925.624-2.364-.039-3.508-.961-1.098-.67-5.39-.746-7.808-.111-3.601.153-3.571 1.155-6.834.377-1.227.505-2.687 0-3.864-.816-1.902-1.997.295-1.918-3.524.192-9.27.538-18.594.294-27.86.053-.825 1.428-.976 1.697-1.756.342-.993.456-2.22 0-3.162-.258-.534-1.702.16-2.125-.244-2.59-2.474-5.842-4.028-7.342-7.328-.582-1.28.356-4.113 1.589-4.725 2.042-1.015 5.84.034 8.075-.351 1.201-.207 1.962-.922 3.179-.976 9.494-.418 19.263-1.367 28.723-.43 1.514.15 2.013 2.822 3.393 3.485 1.892.909 4.66.714 6.11 2.266 2.324 2.486 3.992 4.534 4.287 7.98.362 4.23 1.088 9.02 1.053 12.268-.03 2.72-.848 5.176-2.06 7.516-1.662 3.206-3.64 6.199-5.78 9.367-1.235 1.825-3.432 3.52-3.949 5.602-.534 2.153 5.026.573 6.164 2.457 1.093 1.812-.933 3.934-.322 5.976.546 1.82 3.699 1.998 4.073 3.864.965 4.817-1.165 9.911-.34 14.756.265 1.551 2.726 1.606 2.965 3.162.29 3.362.187 6.92.213 10.491.027 3.802.175 7.62.126 11.234-.093 1.362-1.877 2.159-2.036 3.513-.425 3.606.814 7.678.018 11.214-.839 3.724-3.833 6.354-5 9.982-1.013 3.142-.726 7.73-2.358 9.7-2.7.848-6.06 2.748-8.188 4.332-3.108 2.312-5.094 4.962-6.05 5.046-1.214 1.08-3.782.358-5.287.92-1.388.516-1.519 1.68-2.983 1.49-1.155-.148-.795-1.108-1.697-1.87-.524-.446-1.534-.474-2.036 0-3.046 2.452-.774 1.81-4.233 1.49-3.514-.324-10.354.76-14.632-.116zm19.686-14.102l2.376-4.568-.68-15.106c.68-.938 1.359-1.874 2.037-2.812V99.158c0-2.306-.321-4.612-.321-6.917-2.383-1.97-1.243-1.942.678-4.216 0-2.224.537-4.02.537-6.245l-.68-5.621 1.02-2.81c0-2.818.32-5.099.32-7.917 0-2.646.077-3.532.561-3.366.484.165 1.375 1.384 3.003 2.95l3.712 3.568c2.285 2.196 4.51 2.396 3.584 5.994-.865 3.367 1.623 4.3.85 7.642-.591 2.551-1.368 4.112-1.196 5.694.103.949.548 1.906 1.577 3.09.951 1.093 1.268 1.025.7 2.37-.882 2.086-1.634 3.303-1.722 4.555-.113 1.609.763 2.349 1.532 5.191.63 2.325.57 3.867-.012 6.199l-2.068 8.298c-.078 2.092-.269 4.186-.417 6.28-.225 3.19-.65 3.272-2.868 5.552-2.016 2.072-4.61 3.844-6.553 5.696-2.15.82-3.822.896-5.97 1.716zm5.192-88.77c1.722.05 2.492.221 3.026.001.534-.22.832-.831 1.61-2.342 1.007-1.953 2.496-4.394 3.732-4.578 2.082-.309 3.168-.618 3.168-.618s1.09-.207.716-2.891c-.373-2.685-1.14-5.267-.464-5.99.677-.722.82-2.787.1-3.613-.72-.826-1.404-1.652-.242-2.788 1.163-1.135 1.965-3.037-.814-2.727-2.778.31-2.743-.892-3.064-1.719-.322-.826-3.352-.637-4.936-.728-1.583.31-2.914.206-2.868 1.858.046 1.652-.22 9.615-.198 10.44.023.827.234 15.695.234 15.695zm87.876 72.482c-.124.702-1.735.706-1.612 1.41.174.982.238 2.516 1.228 2.644 2.87.372 6.804-.77 9.65-.244 1.123.208 1.185 2.124 2.215 2.618.847-.014 2.15.016 3.223 0 .827-.43.604-1.946 1.41-2.416.992-.58 2.346-.8 3.424-.404.581.214-.211 1.74.403 1.814 5.02-.19 9.506.36 14.256 0 .948-.156-.018-1.514.759-2.078.883-.642 3.074.478 3.223-.604.771-5.594-.433-11.84.092-17.461.168-1.8 1.895-2.867 2.281-4.633.129-.588.834-.599.89-1.178.195-2.017.16-4.464-.35-6.45-.678-.694-2.746-.947-3.425-.63-.765.562-.07 2.561-.583 3.36-.254.395-1.158-.397-1.41 0-.247.389.073 1.028.186 1.534.068.302.062.558-.186.681-1.32.66-3.266-.906-4.431 0-1.144.89.14 2.611-.827 3.69-1.569 1.748-4.93 2.772-6.493 4.526-1.857 2.085-1.692 4.213-3.826 6.013-1.672 1.408-4.511 1.556-6.536 2.378-2.348.954-3.469 2.712-5.907 3.398-.737.208-1.635-1.08-1.41-1.812 1.827-5.922 4.201-11.876 6.173-17.752 1.265-3.77 1.86-6.147 3.226-9.882 1.415-3.864 3.262-8.641 5.572-12.048.455-.67 1.972-.233 2.216-1.007.604-1.921-.526-4.099 0-6.043.389-1.438 1.904-2.82 3.157-3.625.847-.545 2.2.214 2.573-.721.873-2.182.057-4.494.607-6.78.37-1.54 1.428-2.483 2.101-3.917.893-1.903.828-3.555 1.813-5.413.802-1.511 2.49-3.626 2.975-5.267.668-2.254.12-3.36.338-5.7.058-.63.981-.979 1.007-1.611.313-7.58.714-15.187.27-22.761-.037-.618-1.423-.591-1.41-1.209.047-2.315.328-4.36.2-6.446-.024-.407.117-.741-.29-.758-6.308-.265-12.533-.121-18.845-.047-5.17.06-10.353-.355-15.51 0-.78.053-1.48.187-2.014.758-.513.547-.768 1.716-.738 2.464.136 3.367-.068 7.031 0 11.079.012.75 1.49.301 1.745 1.007.71 1.967.764 4.16.604 6.244-.05.67-.865 1.572-.85 2.242.324 2.33.626 3.977 1.052 6.218.244.867.99 1.544 1.208 2.418.26 1.044-.691 3.153.381 3.222.357.023 1.6.231 2.238 0 .82-.297-.302-1.8 0-2.618.213-.58 1.312-.598 1.41-1.209.532-3.316-.393-7.203.133-10.521.16-1.012.74-2.08 1.611-2.619.742-.459 2.083.689 2.62 0 .742-.955.011-2.056.47-3.175a11.678 11.678 0 013.021-4.23c1.19-1.057 2.38-2.322 3.96-2.487 3.538-.367 7.768-.038 12.558-.244.449-.02.57.67.604 1.12.17 2.208.571 5.21 0 6.646-.83 2.086-2.706 4.414-4.61 6.58-1.304 1.48-2.622 2.792-3.627 4.276-1.205 1.78.595 4.207-.022 6.266-.631 2.106-2.357 4.344-3.694 6.09-1.096 1.432-2.709 2.165-3.737 3.647-1.283 1.85-2.03 3.672-2.842 5.773-.674 1.747-1.108 3.59-1.41 5.438-.238 1.46.46 3.11-.2 4.432-.485.968-1.578.79-2.282 1.611-.977 1.14-1.549 2.602-2.014 4.029-.551 1.69-.597 2.691-1.457 4.247-.965 1.745-2.902 3.43-3.78 5.22-.958 1.952-1.068 4.325-1.547 6.446-.463 2.05-.85 3.983-1.273 6.042-.52 2.521-1.06 5.082-1.008 7.655.016.783.844 1.322 1.21 2.014.307.585 1.014 1.186.805 1.813-.286.857-1.887.919-2.015 1.813-.131.923.104 1.776.782 2.418.59.556 1.792.314 2.215 1.006.456.746.374 1.83 0 2.618-.31.658-1.4.498-1.543 1.21-.58 2.898.132 4.962-.381 7.872zm174.645 28.546c-.378-1.2.566-1.434 1.194-2.06.918-.916 1.806-1.81 2.17-3.614.138-.684.838-1.79 1-2.886.238-1.6-.126-3.268-.562-4.302-.572-1.354-1.51-2.06-1.17-3.352.12-.826 1.988-.928 3.46-1.582.772-.342 1.434-1.012 1.68-1.642.322-.83-.75-.688-1.296-1.742-.582-1.122-.668-2.802-1.116-3.638-.782-1.456-2.212-3.41-2.264-5.064-.14-4.412 1.138-8.866 1.302-13.111.138-3.56.98-4.408.708-8.056-.134-1.816-1.11-3.138-2.118-4.992-.834-1.537-1.93-3.057-2.35-4.507-.746-2.58.004-5.637-.448-8.284-.088-.519-1.388-1.153-1.436-1.678-.336-3.633.074-7.354-.16-10.948-.12-.676-.668-.805-.732-1.489-.19-2.014-.002-3.976-.008-5.718-.006-1.537-.218-2.85-.218-4.636 0-.665-.552-1.121-.574-1.787-.134-3.93.03-8.269-.022-12.205-.056-4.19-.312-7.978.022-12.15.058-.704 1.48-.687 1.452-1.391-.132-3.198-.408-4.47-.334-7.685.008-.371.768-1.233.798-1.603.222-2.676.554-5.354-.128-7.643-.492-1.659-1.736-2.175-3.164-3.245-1.26-.945-2.666-2.481-3.832-3.342-1.492-1.103-2.486-1.99-3.616-3.64-.68-.995.442-1.081 1.694-1.118 1.608-.047 3.364.093 4.894.333.518.081 1.492.974 1.982 1.163 1.18.458 1.952-.136 3.16.24.922.289 4.772 2.296 5.808 2.893 1.416.816 1.874 2.001 3.352 2.694.266.124 4.832 1.431 5.362 1.564 1.236.309 2.004-.595 3.24-.287 1.436.358 3.99 1.082 5.602 1.564.908.272 1.482 1.345 2.412 1.53 4.51.9 3.704-.603 7.276 2.968 1.052 1.053 2.79 1.898 3.574 3.163 1.108 1.784 1.224 3.972 1.928 5.917.548 1.512 1.772 2.754 2.062 4.36.782 4.325-.034 8.822.496 13.184.162 1.332 1.532 2.738 1.676 4.072.546 5.11.638 10.156.016 15.257-.21 1.72-1.658 2.42-1.916 4.132-.43 2.873.428 5.816.224 8.714-.096 1.388-.868 2.837-1.596 4.022-.532.863-1.748 1.174-2.138 2.108-1.026 2.452-.768 5.804-1.244 8.461-.148 5.071-.044 9.005.174 14.073.154 3.572.52 6.779.064 10.325-.16 1.228-1.188 1.902-1.372 3.128-.508 3.388-.072 6.868-.4 10.278-.056.58-.916 1.252-1.038 1.822-.228 3.116-.446 7.664-1.804 11.172-.894 2.314-3.068 4.646-5.156 5.986-2.022 1.298-4.196 1.578-6.526 2.172-1.472.374-3.12.194-4.468.892-.808.42-.266.426-1.004.954-.426.302-1.162.328-1.564 0-.568-.466-.392-.656-1.054-.97-1.01-.478-2.326-.44-3.352 0-.74.318-.47.896-1.262 1.05-1.598.312-3.47.716-5.198.67-1.034-.026-1.85.44-2.142-.494zM305.59 34.374c2.244-.118 2.684-.24 4.682.833 2.066 1.108 2.498 1.839 3.76 3.84l1.952 1.884c2.654 2.562 3.906 6.177 4.99 9.565.178 3.678.968 10.122-.868 13.46-.916 1.665-1.278 2.951-1.434 4.365-.434 3.955-1.556 3.337-2.698 6.332-.31.813-.242 1.824-.27 3.752l-.302 20.657c-.064 4.4-.892 6.498-2.67 10.56-1.044 1.943-1.592 3.195-1.592 5.399 0 2.612-.534 3.816-1.572 6.196l-1.898 4.348c-.75 1.718-1.438 2.334-1.936 2.104-.498-.228-.806-1.306-.798-2.974l.132-25.216.288-26.81c-.112-1.92-.04-2.345-1.3-3.768-.118-2.893-.676-4.202-1.592-6.956-1.156-2.172-1.024-3.756-1.052-6.24l-.218-18.633c-.044-3.812.818-2.509 4.396-2.698zM159.117 141.233c-.69-3.38-.207-6.066-.026-8.608.086-.606 1.309-.04 1.641-.552.496-.766.943-1.816.616-2.668-.197-.51-.544.194-.838-.268-.405-.636-.263-1.664.205-2.256.683-.866 2.049-.642 2.515-1.642.636-1.364-.455-3.08 0-4.514.145-.456 1.324.466 1.436 0 .532-2.194-.13-4.538.206-6.77.087-.582.6-.852.668-1.436.285-2.446.433-4.962 0-7.387-.268-1.505-1.485-2.588-1.694-4.103-.762-5.493-.992-11.475-.285-16.976.549-4.27 3.272-10.874 4.87-14.873 1-2.5 1.491-1.72 2.39-4.26.275-.777.466-1.681.206-2.462-.324-.973-1.473-1.717-1.311-2.73.198-1.241 1.724-1.21 2.131-2.4.553-1.617-.56-3.514 0-5.129.66-1.9 2.93-2.991 3.488-4.924.532-1.844-.038-4.79.483-6.637 1.03-3.65 2.266-6.008 4.03-9.366 1.043-1.982 2.854-3.657 3.667-5.744.785-2.012.705-4.674 1.053-6.36-1.283-1.603-4.225.634-6.155-.063-.98-.354-.976-1.955-1.946-2.337-2.076-.141-4.061-.189-5.54.92-1.982 1.487-1.998 3.23-2.773 5.583-1.158 3.516-.275 7.466-1.72 10.874-.572 1.347-2.904 1.726-4.024 2.667-.593.497-.868 1.016-1.642 1.016-.774 0-1.448-.267-1.641-1.016-.393-1.523.076-3.148 0-4.719-.06-1.237-.723-2.495-.41-3.693.162-.624 1.591-.382 1.641-1.026.613-7.049-.23-14.053-.122-20.789.038-2.365.665-2.014 2.993-2.038 3.922-.04 10.137-.01 14.644-.033 7.909-.04 15.837-.334 23.723-.118 1.174.085 2.702.52 2.784 1.694.166 2.373-1.424 4.662-2.524 6.77-.582 1.115-1.882 1.844-2.31 3.025-.728 2.002.062 4.374-.706 6.36-.47 1.219-2.86 1.444-3.318 2.667-.65 1.73.472 3.82-.206 5.54-.336.853-2.156.366-2.462 1.23-1.032 2.928-.426 6.235-1.23 9.233-.446 1.655-1.7 2.816-1.926 4.514-.616 4.61.4 9.318 0 13.951-.088 1.006-1.15 1.7-1.438 2.667-.676 2.275-1.102 4.734-1.882 6.976-.336.968-1.584 1.47-1.846 2.462-.386 1.454.58 3.126 0 4.514-.73 1.744-3.301 2.458-3.694 4.308-1.107 5.222.647 10.728-.169 16.003-.364 2.36-2.445 4.216-2.872 6.565-.55 3.028.398 6.608-.357 9.59-.728 2.88-2.816 5.376-3.862 8.154-.245 2.726-3.512 5.228-1.73 7.288 2.148.284 5.713.722 8.206-.412 1.147-.52-.182-2.928.82-3.692 3.064-2.34 6.58-3.184 10.018-4.924 1.966-.996 4.438-1.946 6.192-3.282.89-.68.992-2.294 2.05-2.668.638-.226.77 1.322 1.436 1.436 2.292.39 4.28-.59 6.53 0 .9.236.872 1.446 1.106 2.346.21.806.574 1.674.126 2.372-.27.42-1.248-.048-1.438.412-.39.948-.238 2.08 0 3.076.188.776.898 1.258.964 2.052.352 4.158.468 8.37 0 12.516-.098.87-.592 1.782-1.462 1.872-5.918-.272-11.388.162-17.314.18-.61-.054-.26-1.134-.822-1.374-1.528-.656-4.284-.746-5.906-.374-1.886.432-2.044 1.984-3.941 2.362-3.42.684-7.373.014-10.821.536-1.219.184-2.15 1.218-3.345 1.516-1.66.414-4.275.856-5.13-.624zm-91.388 9.636c-2.558.898-5.543.002-8.255.06-.836.018-2.196.674-2.999.438-.876-.256-2.257-1.994-1.71-2.726 2.14-2.854 6.36-3.21 8.314-6.192 1.15-1.754.073-4.116.567-6.154.151-.626 1.248-.568 1.572-1.124.264-.452.341-1.174 0-1.572-.779-.91-1.272.998-1.58-1.726-.275-2.436-.333-4.91-.107-7.344.142-1.55 1.27-1.222 1.482-2.04.397-1.522-.428-2.65-.02-4.17.183-.682 1.448-.51 1.798-1.124.334-.584.373-1.46 0-2.022-.766-1.148-2.846-1.13-3.078-2.49-.426-2.502-.198-5.188-.154-7.67.047-2.645-.134-5.296.086-7.99.04-.5 1.172-.478 1.348-.948.342-.911.126-1.956 0-2.921-.1-.774.138-2.359.078-3.138-.09-1.196-.605-1.64-.049-2.704.388-.74 1.652-.295 1.769-1.123.614-4.376-.698-8.863-.225-13.257.08-.744 1.252-.626 1.45-1.348.316-1.165.414-2.504-.102-3.595-.243-.515-1.392-.517-1.436-1.085-.505-6.42.373-12.491-.137-18.912-.047-.601-1.524.242-1.552-2.367-.03-2.735-.282-5.284-.245-7.294.029-1.543 3.356-1.584 3.321-3.127-.053-2.35.317-5.003-.225-7.414-.174-.776-1.185-.648-1.523-1.368-.318-.676-.018-1.35.273-2.041.35-.83 1.3-1.355 1.524-2.228.411-1.595.37-3.337 0-4.943-.12-.525-1.028-1.039-1.28-1.515-.467-.883-.256-1.662-.879-2.442-.43-.538-1.703-.207-2.227-.655-1.349-1.152-2.127-2.432-3.258-3.482-1.064-.985-2.497-1.728-3.317-3.178-.526-.932.087-2.545.938-3.195.654-.5 1.677-.387 2.403 0 .59.314.58 1.568 1.241 1.66 2.896.403 5.77-.871 8.626-.244 1.245.274 1.311 1.846 2.472 2.373.776.353 2.175-.329 2.881.148 1.037.7 1.917 2.191 2.734 3.024 1.05 1.07 1.957 1.546 2.493 3.062.677 1.913.38 3.876.35 5.867-.025 1.756.26 3.534.1 5.318-.055.6-1.207.317-1.368.898-.283 1.02-.08 2.162.45 3.078.384.666 1.428.327 1.68 1.054.585 1.7.66 3.785.224 5.53-.162.65-1.416.231-1.456.899-.504 8.448-.63 16.97.225 25.39.145 1.43 2.408 1.94 2.56 3.37.848 7.969.076 16.035-.254 24.041-.047 1.139-.61 2.57-1.075 3.42-.52.95-.196 1.899-.177 2.947.025 1.348-.136 2.817.07 4.193.117.786 1.715 1.534 1.66 2.327-.151 2.184.16 3.216.293 5.37.064 1.037-1.824 1.685-2.422 2.533-.431.61-.693 1.792-.342 2.452.33.622.925.306 1.114.986.266.962.288 1.774-.196 2.648-.312.562-1.464.488-1.573 1.122-.306 1.778.704 3.608.45 5.394-.076.534-1.269.364-1.349.898-.399 2.666.452 5.43 0 8.088-.17 1.004-1.725 1.456-1.797 2.472-.04.568 1.304.172 1.573.674.424.796-.64 2.444.224 2.696 2.875.842 6.433.624 9.33-.136 1.64-.432 2.335-2.732 4.025-2.892 2.035-.192 3.537 1.152 5.549 1.512 2.652.478 5.554.564 8.156-.136 1.536-.414 2.428-2.044 4.006-2.254 6.828-.918 13.165-.354 20.055-.39 6.514-.036 14.848-.364 19.685.164 2.758.092-.233 9.85.762 15.004.216 1.122 1.175 1.75 1.75 2.788.92 1.656 1.276 2.498-1.11 2.488-4.487-.022-9.028.324-13.897.118-.956-.04-.91-1.884-1.797-2.248-.972-.398-2.125.472-3.146.226-1.53-.37-3.254-1.836-4.816-2.022-4.164-.5-8.36.544-12.514-.03-.942-.13-1.072-1.954-2.022-2.024-9.71-.71-19.013.31-28.733-.22-2.082-.114-2.272-.84-3.593-1.224-1.87-.54-5.214-.756-6.975.07-3.282 1.536-3.272 4.442-6.691 5.644zm116.885-37.964c-2.029-.06-2.164-3.318-2.003-5.316.165-2.044 2.835-1.937 3.787-3.753.694-1.321-.346-3.645.446-4.911.852-1.364 3.162-1.313 4.014-2.677.488-.779-.24-2.274-.218-3.192.054-2.176.542-3.778.442-5.952-.052-1.13-.522-3.172-.308-4.284.294-1.518 1.198-1.15 1.646-2.63.558-1.851-.37-3.958.222-5.798.236-.728 2.144-.363 2.008-1.115-.166-.916-1.836-.423-2.002-1.339-.506-2.787-.534-6.066.218-8.797.47-1.708 2.408-3.015 2.9-4.719.514-1.784-.574-3.808 0-5.575.388-1.2 2.37-1.453 2.676-2.676.72-2.886.078-6.425.828-9.302.394-1.51 1.182-3.222 2.148-4.168.58-.569 1.102-.981 1.374-1.877.372-1.226-.542-2.258-.332-3.522.186-1.119 1.04-1.837 1.582-2.832.686-1.257.972-2.848 1.63-4.118.96-1.856 2.252-3.409 2.94-5.384.514-1.472-.59-3.874.068-5.289.932-2.003 3.34-1.954 4.258-3.964.742-1.624-.556-3.747.224-5.353.566-1.17 1.844-1.687 3.142-1.738.952-.038 2.108.62 2.432 1.515.638 1.752.062 3.857.784 5.576 1.266 3.023 3.462 4.804 4.68 7.848.634 1.587-.052 3.868.336 5.533.528 2.263.898 4.545 1.646 6.749.928 2.744 2.258 5.406 3.038 8.194.69 2.468.856 5.146 1.388 7.659.39 1.833 1.102 3.516 1.734 5.276.27.756 1.184.564 1.402 1.338.382 1.368-.766 2.854-.446 4.238.38 1.653 2.16 3.328 2.452 4.999.476 2.709-.02 5.3.046 8.05.06 2.513.326 4.846.656 7.256.204 1.482 1.024 3.596 1.062 4.674.138 4.014.316 7.965.36 11.984.068 5.873.068 12.152-.226 18.014-.034.684-.85 1.034-1.09 1.676-.91 2.43-1.672 3.774-2.256 6.304-.308 1.334-.318 2.77-.892 4.014-.352.764-1.922 1.39-2.188 2.188-.59 1.776.134 3.562.004 5.778-.11 1.908-.9 3.004-1.694 4.778-.544 1.212-1.428 3.102-1.764 4.366-.366 1.372.292 2.876-.11 4.238-.212.712-1.184 1.056-1.338 1.784-.386 1.818.334 3.802-.224 5.574-.314 1.004-.532.858-1.49 1.29-.68.304-2.464.65-2.566-.09-.432-3.104.442-5.26-.05-8.358-.576-3.624-2.092-5.828-3.006-9.384-.444-1.726.35-4.846-.47-6.428-1.476-2.85-6.202-4.002-5.996-7.204.198-3.098 2.05-5.114 3.936-7.634 1.288-1.726 2.126-4.544 2.928-6.51.59-1.45.934-3.148.96-4.578.04-2.135-.538-3.064-2.154-4.391-3.376-2.774-8.832-5.311-13.034-7.354-.616-.3-1.338.876-1.338 1.561 0 .685.802 1.218.882 1.898.234 1.998-.976 4.072-.11 5.887.914 1.918 4.52 2.476 3.986 4.531-.36 1.377-.698 1.862-1.866 2.534-.708.408-1.494.38-2.322.418-2.484.114-5.038-.766-7.438-.258-2.606.552-4.938 1.756-7.346 2.956-1.594.796-3.224 1.846-4.988 1.792zm21.968-31.18c-.022-1.968-.07-3.904-.066-5.84.004-1.708.046-3.416.18-5.145.088-1.124 1.116-1.98 1.248-3.1.222-1.849-.914-4.068-.396-5.846.208-.722 2.038.002 2.452-.605.136-.199.414-1.357.876-2.344.278-.592.856-1.124.856-1.35 0-.331-.022-2.679.226-4.713.144-1.18.326-2.178.506-2.186.178-.008.358.971.984 1.786.72.937.964 1.866 1.594 2.857.372.585.772 1.273 1.386 1.512.782.304 1.718-.124 2.496.19.582.235.724 1.148 1.248 1.512.354.246 1.166-.223 1.248.227.37 2.025.05 4.735.372 6.769.078.487 1.156.26 1.18.756.164 3.542.246 7.09.234 10.639-.01 3.13-.092 6.263-.254 9.391-.044.892-2.4.954-3.058.454-1.272-.97-2.078-2.094-3.742-2.495-.694-.166-.66-1.265-1.318-1.484-1.46-.487-3.302-.608-4.828-.608-.996 0-2.434.352-3.424.227-.182-.023.002-.405 0-.605zm47.364-61.061c.004 2.038.222 4.246.228 6.38.01 2.747-.19 5.208-.18 7.976.01 2.948.23 6.205.23 9.088 0 2.344-.428 6.849-.246 8.795.232 2.503.37 2.937 3.792 2.937 1.656 0 3.9-1.699 5.554-3.416 1.132-1.175.962-3.203 1.396-4.08.64-1.29 1.734-2.47 1.962-3.967.292-1.926-.412-3.515.872-4.747.506-.487.984-6.017.984-7.234 0-1.734-1.822-4.306-3.916-6.607-1.432-1.575-3.15-2.988-3.882-4.067-1.342-1.975-2.346-2.841-3.936-3.196-2.904-.649-2.86-.382-2.858 2.138zm-15.332 108.533c-.542 2.14 1.106 3.014 3.056 4.274 1.946 1.26 4.198 2.908 6.318 4.646 3.588 2.94 6.03 8.306 8.364 13.59 1.202-1.278.354-7.234 1.028-10.802.144-.764.968-1.316 1.046-2.09.276-2.774.344-5.596 0-8.362-.13-1.032-1.128-1.786-1.394-2.788-.21-.786-.16-1.644 0-2.44.194-.972.956-1.8 1.044-2.788.264-2.892.436-5.84 0-8.71-.164-1.084-1.824-1.696-1.742-2.788.07-.904 2.024-.838 2.092-1.742.19-2.59-.708-5.09-1.028-7.667-.724-5.791-1.146-11.617-1.744-17.422-.214-2.093-1.05-4.2-.696-6.272 1.09-2.828 2.086-5.733 3.136-8.015.512-.672 1.188.641 1.708 1.307 1.698 2.169 3.954 4.852 4.442 7.562.598 3.322-1.202 6.262-.818 9.617.112.978 1.62.803 1.968 1.724 1.664 4.403 3.016 8.955 3.834 13.59.932 5.282 1.232 10.668 1.394 16.03.07 2.332-.03 4.732-.698 6.968-.952 3.194-2.936 5.74-3.92 8.826-1.03 3.228-1.362 4.192 2.054 4.19 1.352-.002 2.93.052 3.974.574 2.796 1.398 3.95 4.622 6.604 6.272.574.356 1.324.85 2.114 1.292 3.764 2.108 4.178.652 4.962-2.644 1.034-4.358 1.296-8.288 1.966-12.586.342-2.18.27-4.416.366-6.62.136-3.142.372-6.268.21-9.41-.074-1.466-.066-3.07-1.028-4.18-.722-.834-2.852.018-3.136-1.046-.39-1.458 1.714-2.672 1.742-4.182-.576-4.074-1.104-7.72-1.172-11.735-.078-4.734-1.092-2.351-2.662-4.207-.948-1.12-1.244-2.11-1.392-3.57-.438-4.278.182-9.01-.472-13.26-.292-1.9-1.18-3.773-2.438-5.226-.456-.527-1.292.257-1.604-.366-.522-1.044 1.082-1.759.47-2.753-1.422-2.309-4.398-4.072-6.654-5.575-.676-.45-1.866.575-2.44 0-.574-.575-.56-2.34 0-2.927 4.018-.582 6.086-2.474 8.048-4.739 2.662-3.07 3.964-6.493 5.298-10.331.616-1.77-.172-3.837.034-5.698.382-3.443 2.188-6.57 1.586-9.983-.874-4.962-3.32-9.409-6.132-13.59-1.562-2.32-3.988-4.377-6.516-5.575-2.11-.999-3.876-.163-6.116-.818-2.594-.76-4.672-2.21-7.318-2.753-2.06-.422-4.222.438-6.272-.035-1.28-.295-1.488-1.734-2.788-1.934-.896-.138-1.812 1.16-2.716 1.237-6.25.53-11.38-.681-17.6.14-.928.122-.664 1.157.106 1.69 1.15.795 2.898.402 4.182.958 2.304.998 4.076 2.34 5.784 4.181 1.414 1.523 1.99 3.216 3.274 5.575.528.968 2.046-.89 3.138-1.045 1.378-.197 2.336-.234 3.206.854.782.976-.836 2.276-1.758 3.118-1.866 1.7-3.136 2.602-4.786 3.73-1.128.774-3.126 1.468-3.964 2.978-1.86 3.35.346 7.16 1.062 10.924.262 1.373.562 2.715.874 4.077 1.012 4.428.672 8.113 1.288 12.613.2 1.455 1.232 2.722 1.394 4.182.192 1.734-.12 3.012.14 4.738.108.735.71 1.514.906 2.23.868 3.187 1.632 7.189 1.742 10.49.356 10.796-.284 21.373.26 32.163.05.982 1.524 1.37 1.726 2.334.314 1.494-.682 3.21-1.184 4.652-2.062 5.904-4.48 10.322-5.752 15.348z" fill="#0566b0" fill-rule="evenodd"/><path d="M334.648 4.208h-.31v1.547h.432c.306 0 .542-.065.7-.2.158-.134.238-.328.238-.586 0-.262-.084-.454-.254-.577-.17-.124-.438-.184-.806-.184zm.312-1.276c.93 0 1.638.164 2.126.49.49.326.734.802.734 1.427 0 .419-.116.778-.346 1.084-.23.304-.552.529-.972.674l1.43 2.845h-2.24l-1.154-2.5h-.2v2.5h-2.052v-6.52zm4.73 3.396c0-.641-.12-1.252-.362-1.835a4.672 4.672 0 00-1.032-1.547 4.794 4.794 0 00-1.56-1.055 4.744 4.744 0 00-1.838-.356 4.84 4.84 0 00-1.846.348 4.47 4.47 0 00-1.522 1.03c-.46.465-.814.991-1.058 1.58-.246.589-.37 1.2-.37 1.835 0 .638.12 1.246.364 1.823a4.813 4.813 0 001.046 1.553c.46.46.978.811 1.556 1.055a4.653 4.653 0 001.83.364 4.65 4.65 0 001.83-.37 4.928 4.928 0 001.584-1.065c.452-.444.798-.95 1.03-1.52.234-.57.348-1.18.348-1.84zM334.882.3c.826 0 1.61.15 2.344.45a5.885 5.885 0 011.96 1.308 5.98 5.98 0 011.288 1.947c.3.74.452 1.515.452 2.328a6.02 6.02 0 01-.444 2.314 5.615 5.615 0 01-1.296 1.906 6.49 6.49 0 01-2.004 1.337 5.887 5.887 0 01-4.58.01 6.1 6.1 0 01-1.954-1.33 5.977 5.977 0 01-1.324-1.95 5.876 5.876 0 01-.456-2.287c0-.808.152-1.58.46-2.32a6.205 6.205 0 011.336-1.988 5.633 5.633 0 011.908-1.284 6.07 6.07 0 012.31-.44z" fill="#0566b0"/></svg>