<svg xmlns="http://www.w3.org/2000/svg" height="800" width="1200" viewBox="-65.4 -31.075 566.8 186.45"><path class="cls-2" fill="#f74843" d="M142.57 38.05l-7.73 30.93h16.17l-8.44-30.93z"/><g class="cls-3"><path class="cls-2" d="M47.1 25.7L61.2 81 75 25.7h15.2L67.9 98.9H54.5L32.7 25.7zm85.3 0h19.7L172.9 99h-14.8l-4.9-18.3h-21.9s-3.8 14.7-4.6 18c-4.4.3-15.1 0-15.1 0zm76 0h14.4v60.9h30.7v12.3h-45.1zm77.5 0L300 80.3l13.7-54.6h14.8L306.3 99h-13l-22.2-73.3zm103.6 0v9.5h-19.7v10.6h18v9.5h-18v10.9h19.7v9.5h-30.7v-50zM0 124.3h436V0H0" fill="#f74843"/></g></svg>