<svg xmlns="http://www.w3.org/2000/svg" width="22" height="27.349" viewBox="0 0 22 27.349"><g transform="translate(-1140 -268.999)"><path d="M4.782,15.707l0,0a8.233,8.233,0,1,1,6.9,0A20.022,20.022,0,0,0,13.716,8.23a5.486,5.486,0,1,0-10.973,0A19.989,19.989,0,0,0,4.782,15.7Z" transform="translate(1142.743 268.999)" fill="#fff"/><path d="M19,19H3a3,3,0,0,1-3-3V3A3,3,0,0,1,3,0H19a3,3,0,0,1,3,3V16A3,3,0,0,1,19,19ZM11,4.072a2.71,2.71,0,0,0-.87,5.29L8.25,14.928h5.5L11.87,9.362A2.71,2.71,0,0,0,11,4.072Z" transform="translate(1140 277.348)" fill="#fff"/></g></svg>