<?xml version="1.0" encoding="UTF-8" standalone="no"?>
<!-- Created with Inkscape (http://www.inkscape.org/) -->

<svg
   xmlns:dc="http://purl.org/dc/elements/1.1/"
   xmlns:cc="http://creativecommons.org/ns#"
   xmlns:rdf="http://www.w3.org/1999/02/22-rdf-syntax-ns#"
   xmlns:svg="http://www.w3.org/2000/svg"
   xmlns="http://www.w3.org/2000/svg"
   xmlns:sodipodi="http://sodipodi.sourceforge.net/DTD/sodipodi-0.dtd"
   xmlns:inkscape="http://www.inkscape.org/namespaces/inkscape"
   width="117.9723mm"
   height="28.25424mm"
   viewBox="0 0 117.9723 28.25424"
   version="1.1"
   id="svg6923"
   inkscape:version="0.92.0 r15299"
   sodipodi:docname="t-online.svg">
  <defs
     id="defs6917" />
  <sodipodi:namedview
     id="base"
     pagecolor="#ffffff"
     bordercolor="#666666"
     borderopacity="1.0"
     inkscape:pageopacity="0.0"
     inkscape:pageshadow="2"
     inkscape:zoom="1.628836"
     inkscape:cx="222.25002"
     inkscape:cy="46.00834"
     inkscape:document-units="mm"
     inkscape:current-layer="layer1"
     showgrid="false"
     fit-margin-top="0"
     fit-margin-left="0"
     fit-margin-right="0"
     fit-margin-bottom="0"
     inkscape:window-width="1280"
     inkscape:window-height="744"
     inkscape:window-x="-4"
     inkscape:window-y="-4"
     inkscape:window-maximized="1" />
  <metadata
     id="metadata6920">
    <rdf:RDF>
      <cc:Work
         rdf:about="">
        <dc:format>image/svg+xml</dc:format>
        <dc:type
           rdf:resource="http://purl.org/dc/dcmitype/StillImage" />
        <dc:title></dc:title>
      </cc:Work>
    </rdf:RDF>
  </metadata>
  <g
     inkscape:label="Layer 1"
     inkscape:groupmode="layer"
     id="layer1"
     transform="translate(141.95841,-336.85928)">
    <g
       id="g6998"
       transform="translate(0.50000133,-0.49999981)">
      <path
         id="path6931"
         d="m -141.93195,355.77152 v -5.47687 h 5.50334 v 5.47687 z"
         class="st1"
         inkscape:connector-curvature="0"
         style="fill:#e6007e;stroke-width:0.26458332" />
      <path
         id="path6933"
         d="m -128.86153,359.10527 c 0,1.74625 0.26458,2.88396 0.76729,3.38667 0.42333,0.44979 1.16417,0.71437 2.19604,0.82021 0.3175,0.0265 0.82021,0.0265 1.56104,0.0265 v 1.53459 h -13.22916 v -1.53459 c 0.79375,0.0265 1.5875,-0.0265 2.35479,-0.15875 0.9525,-0.13229 1.71979,-0.84666 1.93146,-1.79916 0.15875,-0.76729 0.23812,-1.53459 0.21166,-2.30188 v -19.92312 c -2.24895,0.0529 -3.9952,0.82021 -5.2652,2.2225 -1.19063,1.34937 -1.93146,3.43958 -2.19605,6.27062 l -1.42875,-0.26458 0.26459,-9.525 h 21.51062 l 0.26459,9.525 -1.4023,0.26458 c -0.26458,-2.80458 -1.00541,-4.89479 -2.2225,-6.27062 -1.27,-1.42875 -3.0427,-2.16959 -5.29166,-2.2225 z"
         class="st1"
         inkscape:connector-curvature="0"
         style="fill:#e6007e;stroke-width:0.26458332" />
      <path
         id="path6935"
         d="m -125.36903,355.77152 v -5.47687 h 5.50333 v 5.47687 z"
         class="st1"
         inkscape:connector-curvature="0"
         style="fill:#e6007e;stroke-width:0.26458332" />
      <path
         id="path6937"
         d="m -108.96486,355.77152 v -5.47687 h 5.50333 v 5.47687 z"
         class="st1"
         inkscape:connector-curvature="0"
         style="fill:#e6007e;stroke-width:0.26458332" />
      <path
         id="path6939"
         d="m -92.560697,355.77152 v -5.47687 h 5.503333 v 5.47687 z"
         class="st1"
         inkscape:connector-curvature="0"
         style="fill:#e6007e;stroke-width:0.26458332" />
      <path
         id="path6941"
         d="m -70.176948,350.21527 c 1.5875,-0.0265 3.095625,0.68792 4.074584,1.93146 1.137708,1.40229 1.719791,3.25437 1.719791,5.50333 0,1.98438 -0.449791,3.65125 -1.322916,5.00063 -0.502709,0.76729 -1.190625,1.42875 -1.984375,1.85208 -0.767292,0.42333 -1.613959,0.635 -2.487084,0.60854 -1.931458,0 -3.466041,-0.84666 -4.550833,-2.51354 -0.846667,-1.32292 -1.27,-2.98979 -1.296458,-5.05354 0,-2.2225 0.555625,-4.02167 1.666875,-5.34458 1.005416,-1.29646 2.54,-2.0373 4.180416,-1.98438 z m -0.02646,1.98438 c -1.058333,0 -1.878542,0.47625 -2.487083,1.4552 -0.635,1.00542 -0.978959,2.30188 -0.978959,3.86292 0,1.64042 0.291042,2.98979 0.873125,3.99521 0.291042,0.52917 0.740834,0.97896 1.296459,1.24354 1.005416,0.52917 2.2225,0.42333 3.095625,-0.29104 0.582083,-0.44979 1.031875,-1.16417 1.322916,-2.16958 0.238125,-0.87313 0.370417,-1.77271 0.343959,-2.6723 0,-1.61395 -0.3175,-2.93687 -0.926042,-3.94229 -0.608542,-1.00541 -1.481667,-1.48166 -2.54,-1.48166 z"
         class="st2"
         inkscape:connector-curvature="0"
         style="fill:#7c7c7c;stroke-width:0.26458332" />
      <path
         id="path6943"
         d="m -62.398198,364.76735 v -9.81604 h 1.984375 v 1.24354 c 0.582083,-0.97895 1.640417,-1.56104 2.778125,-1.53458 0.714375,-0.0265 1.375833,0.21167 1.931458,0.635 0.555625,0.47625 0.926042,1.13771 1.005417,1.87854 0.05292,0.44979 0.07937,0.87313 0.05292,1.32292 v 6.27062 h -2.090209 v -5.74145 c 0.02646,-0.55563 -0.02646,-1.11125 -0.132291,-1.64042 -0.07937,-0.29104 -0.238125,-0.52917 -0.47625,-0.71438 -0.264584,-0.1852 -0.582084,-0.29104 -0.926042,-0.29104 -0.582083,0 -1.11125,0.26459 -1.455208,0.74084 -0.264584,0.37041 -0.449792,0.8202 -0.502709,1.29645 -0.05292,0.47625 -0.07937,0.9525 -0.07937,1.42875 v 4.92125 z"
         class="st2"
         inkscape:connector-curvature="0"
         style="fill:#7c7c7c;stroke-width:0.26458332" />
      <path
         id="path6945"
         d="m -52.21174,364.76735 v -14.23458 h 2.090209 v 14.23458 z"
         class="st2"
         inkscape:connector-curvature="0"
         style="fill:#7c7c7c;stroke-width:0.26458332" />
      <path
         id="path6947"
         d="m -47.60799,352.6759 v -2.14313 h 2.090209 v 2.14313 z m 0,12.09145 v -9.8425 h 2.090209 v 9.81605 z"
         class="st2"
         inkscape:connector-curvature="0"
         style="fill:#7c7c7c;stroke-width:0.26458332" />
      <path
         id="path6949"
         d="m -43.057156,364.76735 v -9.81604 h 1.984375 v 1.24354 c 0.582083,-0.97895 1.640416,-1.56104 2.778125,-1.53458 0.714375,-0.0265 1.375833,0.21167 1.931458,0.635 0.555625,0.47625 0.926041,1.13771 1.005416,1.87854 0.05292,0.44979 0.07937,0.87313 0.05292,1.32292 v 6.27062 h -2.090208 v -5.74145 c 0.02646,-0.55563 -0.02646,-1.11125 -0.132292,-1.64042 -0.07937,-0.29104 -0.238125,-0.52917 -0.47625,-0.71438 -0.264583,-0.1852 -0.582083,-0.29104 -0.926041,-0.29104 -0.582084,0 -1.11125,0.26459 -1.455209,0.74084 -0.264583,0.37041 -0.449791,0.8202 -0.502708,1.29645 -0.05292,0.47625 -0.07937,0.9525 -0.07937,1.42875 v 4.92125 z"
         class="st2"
         inkscape:connector-curvature="0"
         style="fill:#7c7c7c;stroke-width:0.26458332" />
      <path
         id="path6951"
         d="m -24.986115,360.37527 h -6.35 c 0,0.52917 0.07937,1.05833 0.264583,1.56104 0.396875,1.00542 1.058334,1.48167 1.984375,1.48167 0.608542,0.0265 1.217084,-0.26458 1.534584,-0.79375 0.15875,-0.26458 0.264583,-0.52917 0.370416,-0.82021 h 1.984375 c -0.105833,0.52917 -0.3175,1.00542 -0.582083,1.48167 -0.740833,1.19062 -1.852083,1.77271 -3.33375,1.77271 -1.243542,0.0529 -2.434167,-0.50271 -3.201458,-1.48167 -0.740834,-0.9525 -1.11125,-2.16958 -1.11125,-3.62479 -0.05292,-1.34938 0.370416,-2.67229 1.137708,-3.75709 1.296458,-1.71979 3.730625,-2.06375 5.450417,-0.76729 0.105833,0.0794 0.211666,0.15875 0.3175,0.26459 1.031875,0.97895 1.534583,2.54 1.534583,4.68312 z m -2.116667,-1.45521 c -0.02646,-0.50271 -0.15875,-1.00541 -0.343958,-1.45521 -0.396875,-0.79375 -0.978958,-1.19062 -1.74625,-1.19062 -0.714375,-0.0265 -1.375833,0.39687 -1.666875,1.05833 -0.238125,0.50271 -0.396875,1.03188 -0.423333,1.5875 z"
         class="st2"
         inkscape:connector-curvature="0"
         style="fill:#7c7c7c;stroke-width:0.26458332" />
    </g>
  </g>
  <style
     id="style6925"
     type="text/css">
	.st0{fill:#FFFFFF;}
	.st1{fill:#E6007E;}
	.st2{fill:#7C7C7C;}
</style>
</svg>
