<svg xmlns="http://www.w3.org/2000/svg" width="33" height="32.996" viewBox="0 0 33 32.996"><g transform="translate(1.001)" fill="none"><path d="M15.5,33A16.5,16.5,0,0,1,3.832,4.832a16.5,16.5,0,0,1,23.335,0A16.5,16.5,0,0,1,15.5,33ZM12.609,22.019h0a6.638,6.638,0,0,0,1.234.487v3.887H17.48V22.507a6.707,6.707,0,0,0,1.236-.489l2.731,2.732,2.571-2.571-2.645-2.645a6.7,6.7,0,0,0,.611-1.32h3.678V14.577H22.156a6.637,6.637,0,0,0-.566-1.539l2.428-2.429-2.571-2.57L19.1,10.382a6.61,6.61,0,0,0-1.624-.706V6.4H13.844V9.678a6.58,6.58,0,0,0-1.624.7L9.878,8.039l-2.571,2.57,2.428,2.429a6.616,6.616,0,0,0-.566,1.539H5.662v3.636H9.34a6.616,6.616,0,0,0,.611,1.32L7.306,22.18l2.571,2.57,2.731-2.731Zm2.93-2.18a3.871,3.871,0,1,1,3.873-3.871A3.876,3.876,0,0,1,15.539,19.839Z" stroke="none"/><path d="M 15.49980163574219 30.99580001831055 C 19.37285232543945 30.99580001831055 23.01407241821289 29.48773956298828 25.75271224975586 26.74941062927246 C 28.49129104614258 24.01112937927246 29.99950218200684 20.37041091918945 29.99950218200684 16.49790000915527 C 29.99950218200684 12.62539005279541 28.49129104614258 8.98466968536377 25.75271224975586 6.246389865875244 C 23.01407241821289 3.508059978485107 19.37285232543945 2 15.49980163574219 2 C 11.62634181976318 2 7.984841346740723 3.50806999206543 5.246081352233887 6.246419906616211 C 2.507441520690918 8.984649658203125 0.9992014765739441 12.62535953521729 0.9992014765739441 16.49790000915527 C 0.9992014765739441 20.37043952941895 2.507441520690918 24.01115036010742 5.246081352233887 26.74938011169434 C 7.984841346740723 29.48773002624512 11.62634181976318 30.99580001831055 15.49980163574219 30.99580001831055 M 11.84380149841309 25.61211967468262 L 11.29171180725098 26.16420936584473 L 9.877751350402832 27.57818031311035 L 8.463531494140625 26.16445922851563 L 5.892231464385986 23.59406089782715 L 4.477771282196045 22.18008995056152 L 5.891751289367676 20.7656307220459 L 6.443893432617188 20.21330070495605 L 5.661901473999023 20.21330070495605 L 3.661901473999023 20.21330070495605 L 3.661901473999023 18.21330070495605 L 3.661901473999023 14.57730007171631 L 3.661901473999023 12.57730007171631 L 5.661901473999023 12.57730007171631 L 6.445666313171387 12.57730007171631 L 5.891721725463867 12.02315044403076 L 4.477791309356689 10.60869026184082 L 5.892231464385986 9.194740295410156 L 8.463531494140625 6.624340057373047 L 9.878021240234375 5.210350036621094 L 11.29199123382568 6.624859809875488 L 11.84380149841309 7.176881790161133 L 11.84380149841309 6.396299839019775 L 11.84380149841309 4.396299839019775 L 13.84380149841309 4.396299839019775 L 17.4807014465332 4.396299839019775 L 19.4807014465332 4.396299839019775 L 19.4807014465332 6.396299839019775 L 19.4807014465332 7.176881790161133 L 20.03251075744629 6.624859809875488 L 21.44648170471191 5.210350036621094 L 22.86097145080566 6.624340057373047 L 25.43227195739746 9.194740295410156 L 26.84671211242676 10.60869026184082 L 25.43278121948242 12.02315044403076 L 24.87883758544922 12.57730007171631 L 25.66260147094727 12.57730007171631 L 27.66260147094727 12.57730007171631 L 27.66260147094727 14.57730007171631 L 27.66260147094727 18.21330070495605 L 27.66260147094727 20.21330070495605 L 25.66260147094727 20.21330070495605 L 24.88132095336914 20.21330070495605 L 25.4325122833252 20.76449012756348 L 26.84673118591309 22.1786994934082 L 25.4325122833252 23.59291076660156 L 22.8612117767334 26.16420936584473 L 21.4467716217041 27.57865905761719 L 20.03255081176758 26.16398048400879 L 19.47998237609863 25.61122894287109 L 19.47980117797852 26.39385986328125 L 19.47934150695801 28.39340019226074 L 17.47980117797852 28.39340019226074 L 13.84380149841309 28.39340019226074 L 11.84380149841309 28.39340019226074 L 11.84380149841309 26.39340019226074 L 11.84380149841309 25.61211967468262 M 15.53850173950195 17.83869934082031 C 16.57111167907715 17.83869934082031 17.41120147705078 16.99942016601563 17.41120147705078 15.96780014038086 C 17.41120147705078 14.93618011474609 16.57111167907715 14.09689998626709 15.53850173950195 14.09689998626709 C 14.50639152526855 14.09689998626709 13.6667013168335 14.93618011474609 13.6667013168335 15.96780014038086 C 13.6667013168335 16.99942016601563 14.50639152526855 17.83869934082031 15.53850173950195 17.83869934082031 M 15.49980163574219 32.99580001831055 C 11.09219169616699 32.99580001831055 6.948471546173096 31.27972984313965 3.831971406936646 28.16370010375977 C 0.7155115008354187 25.04771041870117 -1.000798463821411 20.90471076965332 -1.000798463821411 16.49790000915527 C -1.000798463821411 12.09109020233154 0.7155115008354187 7.948090076446533 3.831971406936646 4.832099914550781 C 6.948471546173096 1.716070055961609 11.09219169616699 9.155272095995315e-09 15.49980163574219 9.155272095995315e-09 C 19.90702056884766 9.155272095995315e-09 24.05046081542969 1.716070055961609 27.16684150695801 4.832099914550781 C 30.28323173522949 7.948140144348145 31.99950218200684 12.091139793396 31.99950218200684 16.49790000915527 C 31.99950218200684 20.90465927124023 30.28323173522949 25.04766082763672 27.16684150695801 28.16370010375977 C 24.05046081542969 31.27972984313965 19.90702056884766 32.99580001831055 15.49980163574219 32.99580001831055 Z M 12.60900115966797 22.01851081848145 L 12.60965156555176 22.01884078979492 C 13.00775146484375 22.22373008728027 13.42298126220703 22.38772964477539 13.84380149841309 22.50629997253418 L 13.84380149841309 26.39340019226074 L 17.47980117797852 26.39340019226074 L 17.4807014465332 22.50720024108887 C 17.90359115600586 22.38714027404785 18.319091796875 22.2230396270752 18.71640205383301 22.01849937438965 L 21.44700241088867 24.75 L 24.01830101013184 22.1786994934082 L 21.37320137023926 19.53359985351563 C 21.62538146972656 19.11421012878418 21.83103179931641 18.67041015625 21.98430061340332 18.21330070495605 L 25.66260147094727 18.21330070495605 L 25.66260147094727 14.57730007171631 L 22.15620231628418 14.57730007171631 C 22.03143119812012 14.04207992553711 21.84130096435547 13.52455043792725 21.59010124206543 13.03829956054688 L 24.01830101013184 10.6092004776001 L 21.44700241088867 8.038800239562988 L 19.10430145263672 10.382399559021 C 18.5948314666748 10.07456016540527 18.04898071289063 9.837109565734863 17.4807014465332 9.676799774169922 L 17.4807014465332 6.396299839019775 L 13.84380149841309 6.396299839019775 L 13.84380149841309 9.677700042724609 C 13.27424144744873 9.838120460510254 12.72823143005371 10.07489013671875 12.22020149230957 10.382399559021 L 9.877501487731934 8.038800239562988 L 7.306201457977295 10.6092004776001 L 9.734401702880859 13.03829956054688 C 9.483231544494629 13.52445030212402 9.292701721191406 14.04185009002686 9.168301582336426 14.57730007171631 L 5.661901473999023 14.57730007171631 L 5.661901473999023 18.21330070495605 L 9.340201377868652 18.21330070495605 C 9.493781089782715 18.67221069335938 9.699061393737793 19.11618995666504 9.951301574707031 19.53359985351563 L 7.306201457977295 22.17959976196289 L 9.877501487731934 24.75 L 12.60848140716553 22.01902008056641 L 12.60900115966797 22.01851081848145 Z M 15.53850173950195 19.83869934082031 C 13.4035816192627 19.83869934082031 11.6667013168335 18.10222053527832 11.6667013168335 15.96780014038086 C 11.6667013168335 13.8333797454834 13.4035816192627 12.09689998626709 15.53850173950195 12.09689998626709 C 17.67391204833984 12.09689998626709 19.41120147705078 13.8333797454834 19.41120147705078 15.96780014038086 C 19.41120147705078 18.10222053527832 17.67391204833984 19.83869934082031 15.53850173950195 19.83869934082031 Z" stroke="none" fill="#ff5e00"/></g></svg>